<svg width="24" height="24" viewBox="0 0 24 24" xmlns="http://www.w3.org/2000/svg"><path fill="currentColor" d="M21.987 4.362v14.773c0 .177.03.373 0 .471-.031.105-.296.227-.47.326a16.45 16.45 0 0 1-2.735 1.231 18.25 18.25 0 0 1-2.154.616c-1.399.296-2.93.489-4.635.489-3.647 0-6.563-.818-8.998-2.064-.174-.09-.354-.175-.525-.272-.164-.093-.342-.168-.47-.307V4.38c.122-.132.296-.198.452-.289 2.286-1.337 5.22-2.174 8.69-2.336 3.385-.157 6.295.504 8.636 1.467.808.332 1.55.712 2.209 1.14zm-6.12 7.097c.021-.002.029.026.037 0-.384-.506-.854-1.134-1.267-1.683a3.514 3.514 0 0 1-.182-.254c0-.003.12-.087.2-.145 2.064-1.508 4.213-3.156 6.191-4.634-1.493-.806-3.238-1.432-5.214-1.775-.146-.025-.304-.086-.398-.072-.115.017-.335.225-.47.326-1.106.817-2.16 1.623-3.223 2.407-.342-.5-.739-.98-1.087-1.448-.121-.163-.209-.357-.38-.47-.707 2.575-1.465 5.1-2.172 7.676 2.659.008 5.35.082 7.966.072zm-7.73 1.122c.448.651.944 1.253 1.394 1.902-2.123 1.601-4.263 3.184-6.39 4.78 1.622.881 3.506 1.501 5.648 1.864 1.206-.93 2.453-1.82 3.657-2.752.413.574.878 1.153 1.285 1.702.064.086.1.185.181.253.367-1.292.718-2.571 1.086-3.856.366-1.274.763-2.55 1.087-3.856a891.18 891.18 0 0 1-7.966-.09c-.02.025-.02.044.018.053z"/></svg>