<?xml version="1.0" encoding="UTF-8" standalone="no"?>
<!-- Generator: Adobe Illustrator 15.1.0, SVG Export Plug-In . SVG Version: 6.00 Build 0)  -->

<svg
   version="1.1"
   id="Vrstva_1"
   x="0px"
   y="0px"
   width="46.748001"
   height="48.000393"
   viewBox="0 0 46.748 48.000393"
   enable-background="new 0 0 1000 271"
   xml:space="preserve"
   sodipodi:docname="idsok.svg"
   inkscape:version="1.3.2 (091e20e, 2023-11-25, custom)"
   xmlns:inkscape="http://www.inkscape.org/namespaces/inkscape"
   xmlns:sodipodi="http://sodipodi.sourceforge.net/DTD/sodipodi-0.dtd"
   xmlns="http://www.w3.org/2000/svg"
   xmlns:svg="http://www.w3.org/2000/svg"><defs
   id="defs5" /><sodipodi:namedview
   id="namedview5"
   pagecolor="#ffffff"
   bordercolor="#000000"
   borderopacity="0.25"
   inkscape:showpageshadow="2"
   inkscape:pageopacity="0.0"
   inkscape:pagecheckerboard="0"
   inkscape:deskcolor="#d1d1d1"
   inkscape:zoom="256"
   inkscape:cx="47.28125"
   inkscape:cy="47.589844"
   inkscape:window-width="958"
   inkscape:window-height="1000"
   inkscape:window-x="1913"
   inkscape:window-y="0"
   inkscape:window-maximized="0"
   inkscape:current-layer="Vrstva_1" />





<path
   fill="currentColor"
   d="M 46.713836,6.1468773 V 40.67529 c 0,0.413502 0.0686,0.871406 0,1.10036 -0.07334,0.243819 -0.691217,0.530853 -1.10016,0.761192 -1.95452,1.106505 -4.109052,2.09209 -6.390253,2.877863 -1.602269,0.55246 -3.286805,1.068248 -5.033781,1.439131 -3.269958,0.692606 -6.847958,1.14278 -10.833516,1.14278 -8.52496,0 -15.3394196,-1.911902 -21.0307222,-4.823069 C 1.9180468,42.964419 1.4983998,42.763217 1.0985754,42.53704 0.71421278,42.320577 0.29912492,42.144947 0,41.818466 V 6.1896946 C 0.28524901,5.8798652 0.69121843,5.7258427 1.0573441,5.5137395 6.3993704,2.3888852 13.254861,0.4311929 21.367906,0.05416468 29.277768,-0.31354687 36.078549,1.2306435 41.551802,3.4813156 c 1.88752,0.7766543 3.62399,1.6647125 5.162034,2.6655617 z M 32.411939,22.734534 c 0.04738,-0.0046 0.06561,0.06105 0.08385,0 -0.897175,-1.182622 -1.994363,-2.651884 -2.961514,-3.935208 -0.103673,-0.135786 -0.42718,-0.56911 -0.424208,-0.592106 0.0016,-0.0078 0.282277,-0.20437 0.466826,-0.338769 C 34.40155,14.343771 39.424628,10.492613 44.048081,7.0365213 40.558485,5.1535605 36.479761,3.6904453 31.861065,2.8892107 31.519323,2.8297421 31.150025,2.6878119 30.930388,2.7199246 30.661989,2.7611558 30.147591,3.2464163 29.830227,3.4813156 27.24693,5.3916315 24.785741,7.2745923 22.298585,9.1085904 21.498933,7.9412305 20.572817,6.818273 19.759491,5.7242568 19.475628,5.3428677 19.271258,4.8881342 18.871432,4.6240957 17.217424,10.643663 15.447453,16.54568 13.793444,22.564851 c 6.215019,0.02003 12.502987,0.19248 18.618495,0.169683 z M 14.342931,25.35728 c 1.046839,1.521393 2.207855,2.926626 3.257666,4.443264 -4.960438,3.742927 -9.9621081,7.441649 -14.9350353,11.170897 3.791691,2.061169 8.1953083,3.510804 13.2017363,4.359217 2.819783,-2.172771 5.73412,-4.252371 8.546172,-6.432872 0.967349,1.342593 2.052247,2.694701 3.004332,3.977628 0.149463,0.201597 0.235098,0.432136 0.424206,0.592105 0.857532,-3.019595 1.676804,-6.01025 2.537507,-9.011806 0.854558,-2.978365 1.782261,-5.959902 2.539093,-9.013195 -6.24059,-0.03509 -12.431029,-0.121911 -18.616908,-0.211905 -0.04876,0.06105 -0.0456,0.10387 0.04123,0.126667 z"
   id="path5"
   style="stroke-width:0.198227" />
</svg>
